<?xml version="1.0" encoding="utf-8"?>
<!-- Generator: Adobe Illustrator 28.4.1, SVG Export Plug-In . SVG Version: 6.00 Build 0)  -->
<svg version="1.1" id="Logo" xmlns="http://www.w3.org/2000/svg" xmlns:xlink="http://www.w3.org/1999/xlink" x="0px" y="0px"
	 viewBox="0 0 496.1 127.5" style="enable-background:new 0 0 496.1 127.5;" xml:space="preserve">
<g id="Design">
	<g id="_x3C_Group_x3E_">
		<path d="M18.7,34.9c0-7.1-2.4-10.6-7.3-10.6c-1.3,0-2.3,0.1-3,0.3C6.9,24.9,5.6,25,4.5,25c-1.2,0-2.3-0.5-3.1-1.4
			c-0.9-0.9-1.3-2-1.3-3.4c0-3.3,2.1-5,6.3-5c0.6,0,1.2,0,2,0.1l7.6,1c2.9,0.4,5.8,0.6,8.9,0.6c3,0,6.2-0.2,9.7-0.7l6.4-0.9
			c0.8-0.1,1.4-0.1,2-0.1c4.2,0,6.3,1.7,6.3,5c0,1.3-0.4,2.5-1.3,3.4c-0.9,0.9-1.9,1.4-3.1,1.4c-1,0-2.2-0.1-3.9-0.4
			c-0.7-0.2-1.7-0.3-3-0.3c-4.9,0-7.3,3.5-7.3,10.6v57.4c0,7.2,2.4,10.7,7.3,10.7c0.8,0,1.8-0.1,3-0.3c1.8-0.3,3.1-0.4,3.9-0.4
			c3,0,4.4,1.5,4.4,4.6c0,3.4-2.1,5.1-6.3,5.1c-0.2,0-0.5,0-1,0c-0.4-0.1-0.7-0.1-1-0.1l-7.4-1.1c-2.5-0.4-5.1-0.6-7.9-0.6
			c-4,0-7.6,0.2-10.7,0.7l-6.6,1c-0.2,0-0.5,0-1,0.1c-0.5,0-0.9,0-1.1,0c-4.1,0-6.2-1.7-6.2-5.1c0-3.1,1.5-4.6,4.4-4.6
			c0.5,0,1.8,0.1,3.9,0.3c1,0.3,2,0.4,3,0.4c4.9,0,7.3-3.6,7.3-10.7C18.7,92.3,18.7,34.9,18.7,34.9z"/>
		<path d="M107.3,92.4c0,7.2,2.4,10.7,7.3,10.7c0.8,0,1.9-0.1,3.4-0.4c1.5-0.2,2.7-0.4,3.4-0.4c1.2,0,2.3,0.5,3.2,1.4
			c0.9,0.9,1.4,2,1.4,3.2c0,3.3-2.1,5-6.4,5c-0.2,0-0.5,0-0.9,0c-0.5-0.1-0.8-0.1-1-0.1l-7-1c-2.7-0.4-5.7-0.6-9-0.6
			c-3.6,0-6.8,0.2-9.6,0.6l-7.2,1c-0.3,0-0.6,0-1,0.1c-0.5,0-0.8,0-1,0c-4.2,0-6.3-1.7-6.3-5c0-3.1,1.5-4.6,4.6-4.6
			c0.8,0,1.9,0.1,3.4,0.4c1.5,0.2,2.7,0.4,3.4,0.4c4.8,0,7.2-3.6,7.2-10.7v-10V69.8V57.6V34.3c0-6.8-3.5-10.2-10.4-10.2h-4.4
			c-6.9,0-10.3,3.3-10.3,10c0,2.4,0,4,0.1,4.9l0.6,5.3c0.1,0.9,0.1,2.1,0.1,3.6c0,6-1.9,9-5.6,9c-3.5,0-5.3-2.2-5.3-6.6
			c0-1.2,0.1-3.4,0.3-6.4c0.3-4.6,0.4-7.5,0.4-8.7c0-2.4-0.1-4.9-0.2-7.4c-0.3-5.1-0.5-7.2-0.5-6.4c0-4,1.8-6,5.4-6
			c1.3,0,4.4,0.1,9.3,0.4c0.5,0,4.4,0.2,11.7,0.6h16.3c1.9,0,7-0.1,15.3-0.3c1.8,0,4.9-0.1,9.3-0.4c3.9-0.3,6.9-0.4,9.1-0.4
			c4.8,0,7.1,2,7.1,5.9v0.3c0,1-0.1,2.7-0.4,5.3c-0.2,2.6-0.5,5.3-0.8,8.3v1.6c0,1.4,0.1,3.7,0.4,6.7c0.4,4,0.6,6.5,0.6,7.4
			c0,3.9-1.9,5.9-5.6,5.9c-3.6,0-5.4-2.4-5.4-7.2c0-1.7,0.1-4.3,0.4-7.7c0.3-3.4,0.4-6,0.4-7.7c0-6.6-3.8-9.9-11.3-9.9h-4
			c-3.5,0-6.1,0.7-7.6,2.2c-1.5,1.5-2.4,3.9-2.6,7.4l-0.6,10v48.6H107.3z"/>
		<path d="M225.6,95.3l-5.1-14c-0.6-1.5-1.2-2.5-1.8-2.8c-0.6-0.4-1.9-0.6-3.8-0.6h-25.3c-1.9,0-3.2,0.3-3.9,1
			c-0.7,0.7-1.6,2.5-2.8,5.4l-4.1,11c-0.4,1-0.6,2-0.6,3c0,3,1.9,4.6,5.6,4.6c0.9,0,2.3-0.1,4.1-0.3c1.8-0.2,3.1-0.3,3.9-0.3
			c3.9,0,5.8,1.7,5.8,5c0,3.1-2.1,4.7-6.4,4.7c-0.8,0-1.8-0.1-3.1-0.3l-7.1-0.9c-1.3-0.2-3.5-0.3-6.5-0.3c-3.3,0-5.6,0.1-7,0.2
			l-6,0.7c-2.7,0.3-4.6,0.5-5.8,0.5c-3.7,0-5.6-1.6-5.6-4.7c0-3.3,1.8-5,5.4-5c0.8,0,1.3,0.2,1.7,0.6h1.9c2.6,0,4.5-1,5.8-3
			c0.6-0.8,1.5-3,2.8-6.7l26.5-71.9c1.5-4,4.5-6,9-6c4.4,0,7.3,2,8.7,6l25.4,70.7c1.6,4.5,3.1,7.4,4.4,8.8s3.2,2.1,5.7,2.1
			c0.8,0,1.3-0.1,1.7-0.2l4-0.4c3.6,0,5.4,1.6,5.4,4.7c0,3.3-1.8,5-5.4,5c-1,0-2.4-0.1-4.1-0.3c-6-0.7-10.4-1.1-13.4-1.1
			c-3.5,0-9.2,0.4-17.1,1.1c-2,0.2-3.5,0.3-4.6,0.3c-3.8,0-5.7-1.6-5.7-4.8c0-3.2,2.1-4.8,6.3-4.8c0.9,0,2.1,0.1,3.8,0.3
			c1.7,0.2,2.9,0.3,3.8,0.3c3.1,0,4.7-1.3,4.7-3.8C226.8,98.7,226.4,97.4,225.6,95.3z M215.4,66.3L202.6,27l-13.1,39.3
			c-0.2,0.6-0.3,0.9-0.3,1c0,0.9,0.7,1.3,2.1,1.3h22.6c1.1,0,1.7-0.4,1.7-1.1C215.7,67.2,215.6,66.9,215.4,66.3z"/>
		<path d="M300.5,90.4c0,5.6,0.6,8.9,1.7,10c0.9,0.9,2,1.4,3.4,1.6c1.4,0.2,4.5,0.3,9.4,0.3h12.6c6.6,0,11-0.9,13.2-2.6
			c2.2-1.7,3.3-5.3,3.3-10.5c0-1.4,0-3.1-0.1-4.9c-0.2-3.7-0.3-5.9-0.3-6.6c0-4.1,1.7-6.2,5-6.2c4,0,6,1.9,6,5.7
			c0,1.1,0,2.1-0.1,2.7l-1,7.3c-0.3,2.1-0.4,4.3-0.4,6.6c0,1.3,0.1,3.3,0.4,5.9c0.2,2.6,0.4,4.6,0.4,5.9c0,4.3-2.4,6.4-7.3,6.4
			c-1,0-3.2-0.2-6.6-0.5c-2.3-0.2-5.8-0.3-10.6-0.5h-10.7h-22.9c-2.3,0-6.1,0.2-11.5,0.6c-0.8,0-2.1,0.1-3.9,0.2
			c-1.9,0.1-3.3,0.2-4.4,0.2c-4,0-6-1.7-6-5.2c0-3.1,1.5-4.6,4.4-4.6c0.8,0,1.9,0.1,3.4,0.4s2.7,0.4,3.4,0.4c4.9,0,7.3-3.6,7.3-10.7
			V34.9c0-7.1-2.4-10.6-7.3-10.6c-1.3,0-2.3,0.1-3,0.3c-1.5,0.3-2.8,0.4-3.9,0.4c-1.2,0-2.3-0.5-3.1-1.4c-0.9-0.9-1.3-2-1.3-3.4
			c0-3.3,2.1-5,6.2-5c0.6,0,1.3,0,2.1,0.1l7.6,0.9c4.2,0.5,7.3,0.7,9.3,0.7c2.5,0,5.5-0.2,9.2-0.7l6.6-0.9c0.8-0.1,1.4-0.1,1.9-0.1
			c4.3,0,6.4,1.7,6.4,5c0,1.3-0.4,2.5-1.3,3.4c-0.9,0.9-1.9,1.4-3.2,1.4c-1,0-2.2-0.1-3.9-0.4c-0.7-0.2-1.7-0.3-3-0.3
			c-4.9,0-7.3,3.5-7.3,10.5v55.6H300.5z"/>
		<path d="M415.1,8.5l-40.9,104.8c-1.2,3.1-2.5,6.7-3.9,10.6c-0.9,2.4-2.1,3.6-3.9,3.6H362c-1.4,0-2.1-0.5-2.1-1.6
			c0-0.4,0.1-0.8,0.4-1.3l1.4-3.6l1.7-4.1l37.2-95c1-2.8,2.7-7.2,4.9-13.3l2-5.6c0.8-2,2.1-3,4.1-3h4.3c1.2,0,1.9,0.5,1.9,1.6
			c0,0.5-0.4,1.8-1.3,3.9C415.9,6.5,415.5,7.5,415.1,8.5z"/>
		<path d="M460.6,15.3c10.1,0,18.3,3.9,24.6,11.6v-1.5c0-0.5,0-1,0-1.5c-0.2-0.6-0.3-0.9-0.3-1c-0.2-2-0.3-3-0.3-2.8
			c0-3.2,1.4-4.7,4.2-4.7c3,0,4.5,1.9,4.5,5.7c0,0.7-0.1,2.9-0.3,6.5c-0.5,4.5-0.8,7.7-0.8,9.4c0,2.4,0.2,4.9,0.5,7.5l0.6,5.2v1.2
			c0,4.1-1.6,6.1-4.9,6.1c-3.5,0-5.3-1.9-5.2-5.8v-4.9c0.2-6.5-1.9-11.7-6.1-15.8c-4.2-4-9.8-6.1-16.7-6.1c-9,0-16,3.4-21,10.3
			c-5.1,6.9-7.6,16.4-7.6,28.6c0,12.4,2.6,22.1,7.8,29c5.2,6.9,12.5,10.4,21.8,10.4c5.1,0,9.6-1.2,13.7-3.7c4-2.4,6.9-5.7,8.5-9.7
			c1.1-2.6,1.6-6.2,1.6-10.6c0-4.2,1.7-6.3,5.2-6.3c3.7,0,5.6,2.1,5.6,6.3c0,9.7-3.4,17.6-10.1,23.8s-15.4,9.2-26,9.2
			c-12.2,0-22-4.3-29.3-12.9c-7.3-8.6-10.9-20.1-10.9-34.4c0-14.8,3.7-26.7,11.2-35.8C438.5,19.8,448.3,15.3,460.6,15.3z"/>
	</g>
</g>
</svg>
